<svg xmlns="http://www.w3.org/2000/svg" viewBox="0 0 268.01 454.69"><defs><style>.cls-1{fill:#c46856;}.cls-2{fill:#e7c5a3;}.cls-3{fill:#6f6154;}.cls-4{fill:#5c84ad;}.cls-5{fill:#76a192;}.cls-6{fill:#f6da83;}.cls-7{fill:#b0a7a7;}.cls-8{fill:#e1d6bc;}.cls-9{fill:#d46981;}.cls-10{fill:#9fc39f;}.cls-11{fill:#ecd7c4;}.cls-12{fill:#c4baa4;}.cls-13{fill:#b76256;}.cls-14{fill:#d3b192;}.cls-15{fill:#bd5e73;}.cls-16{fill:#e3e4e3;}.cls-17{fill:#e3d9d9;}.cls-18{fill:#ece0e0;}.cls-19{fill:#ede2e3;}.cls-20{fill:#e2e3e2;}.cls-21{fill:#716255;}.cls-22{fill:#b2a9a9;}.cls-23{fill:#c2a286;}.cls-24{fill:#c2a387;}.cls-25{fill:#e5dfdf;}.cls-26{fill:#c2a185;}.cls-27{fill:#e0bbc3;}.cls-28{fill:#c3a387;}.cls-29{fill:#b4c3bd;}.cls-30{fill:#dfdcdc;}.cls-31{fill:#8db1a5;}.cls-32{fill:#5e86ad;}.cls-33{fill:#5e86ac;}.cls-34{fill:#7a8387;}.cls-35{fill:#bd5e74;}.cls-36{fill:#ded3b9;}.cls-37{fill:#ddd2b8;}.cls-38{fill:#ddd4bb;}.cls-39{fill:#dcd4ba;}.cls-40{fill:#ddd4ba;}.cls-41{fill:#dad2b9;}.cls-42{fill:#dec5c9;}.cls-43{fill:#eee3e4;}.cls-44{fill:#ccc0c1;}.cls-45{fill:#f8e3a9;}.cls-46{fill:#849197;}.cls-47{fill:#749ba8;}.cls-48{fill:#cdbba5;}.cls-49{fill:#d6be73;}.cls-50{fill:#c5baa4;}.cls-51{fill:#d8d1bb;}.cls-52{fill:#dfd5bc;}.cls-53{fill:#e6dbdc;}.cls-54{fill:#7ca494;}.cls-55{fill:#d8c693;}</style></defs><g id="Calque_2" data-name="Calque 2"><g id="Calque_1-2" data-name="Calque 1"><path id="Tracé_1103" data-name="Tracé 1103" class="cls-1" d="M58.93,41a64.31,64.31,0,0,1,8.67.11c6,.34,12,.35,17.93.4,4.22.22,8.43.5,12.66-.22a29.34,29.34,0,0,1,8.92.31c1.16.16,2.35,0,3.52.09,3.5.06,7-.1,10.49.07,1.13.15,2.26.31,3.4.35,7.26.3,14.52.32,21.78.52,14.43.41,28.85.93,43.28,1.29.83,0,1.67-.07,2.5,0,3.58-.22,7.1.41,10.65.73a4.78,4.78,0,0,1,.87.45c.27,0,.54.08.81.09l23.16.63,24.25.67c3.72.11,7.44.26,11.16.4,1.47.06,1.49.07,1.84,1.45a102.19,102.19,0,0,1,2,11.24,129.66,129.66,0,0,1,1.1,21.75,133,133,0,0,1-3.17,24.81,2.06,2.06,0,0,1-1.7,1.83c-3.44.76-6.87-.13-10.29-.08-10.19.17-20.34-.53-30.52-.68-15.89-.22-31.77-.81-47.66-1.15-13.25-.28-26.5-.72-39.76-1.05-14.52-.36-29.06-.58-43.57-1.19-9.16-.38-18.36.22-27.49-.92a7.18,7.18,0,0,1-3.17-.61c-.92-.82-.77-2-.9-3-.08-8.15.63-16.28.57-24.45-.09-10.35-1.19-20.62-2-30.91A3.33,3.33,0,0,1,58.93,41Z"/><path id="Tracé_1104" data-name="Tracé 1104" class="cls-2" d="M247.28,292.48a1.71,1.71,0,0,1,1.65,1.53c.5,2,1.15,4,1.52,6.05.52,2.85.91,5.72,1.29,8.59a79.75,79.75,0,0,1,.34,14.41,75.38,75.38,0,0,1-3,17.63c-.1.35-.2.7-.33,1a1.33,1.33,0,0,1-1.21.94c-.63,0-1.27.05-1.91.05-3.54,0-7.09,0-10.63,0-.71,0-1.48-.16-2,.55a5.83,5.83,0,0,1-3,.36c-17.74,0-35.49.4-53.22-.09-28.74-.8-57.48-.2-86.22-.45-.55,0-1.09-.06-1.64-.08-8.71.1-17.42.13-26.14,0-6.19,0-12.38,0-18.57,0-.31,0-.64,0-1,0-1,0-2.13.06-3-.73,0-1.19-.41-2.4.11-3.58,1.08-2.67.88-5.54,1.14-8.3a166.58,166.58,0,0,0-.75-33.56,6.28,6.28,0,0,1,0-1.62,2,2,0,0,1,.78-1.33,6.64,6.64,0,0,1,3.46-.56c21.44.37,42.87-.77,64.32-.59,20.17.17,40.36.36,60.53-.05,23.62-.48,47.24-.38,70.86-.48C243,292.14,245.1,292.42,247.28,292.48Z"/><path id="Tracé_1105" data-name="Tracé 1105" class="cls-3" d="M31.7,242.8l-28.1-.13c-.82,0-1.64,0-2.45,0S0,242.21,0,241.39c0-3.64,0-7.27,0-10.91V208.66c.25-.51.71-.49,1.17-.47,7.45.35,14.87-.6,22.32-.55,20.48.11,41-.27,61.42.1,51.85.92,103.7.16,155.56.45a6.16,6.16,0,0,1,3.2.45.7.7,0,0,1,.31.92c0,1.27-.15,2.53-.15,3.8,0,9,0,18-.06,27,0,.87.32,1.83-.43,2.59-8.9-.43-17.66,1.71-26.55,1.34a24,24,0,0,1-4.32-.27c-4.29-.72-8.62-.11-12.92-.35a15.57,15.57,0,0,1-2.46.09q-80.22,0-160.44,0C35,243.72,33.16,244.13,31.7,242.8Z"/><path id="Tracé_1106" data-name="Tracé 1106" class="cls-4" d="M31.7,242.8l142.14.08h22.65c1.08,0,2.17.1,3.26.15,1,1,.76,2.38.76,3.62q0,19.48,0,39c0,4-.36,4.36-4.38,4.37q-37.21,0-74.44,0c-1.45,0-2.91,0-4.36.06-27.48.11-54.95.06-82.43,0-3.6,0-4.24-.8-3.32-3.58.05-.81.13-1.62.13-2.44q0-20,0-39.92C31.75,243.71,31.72,243.25,31.7,242.8Z"/><path id="Tracé_1107" data-name="Tracé 1107" class="cls-5" d="M12.55,205.12q0-13.47,0-26.93c0-3.89-.07-3.58,3.52-3.58l34.57,0c.9,0,1.81-.05,2.72-.07,1.32-1.13,2.87-.79,4.36-.6a43.2,43.2,0,0,0,4.54.38c6.92.07,13.82.77,20.75.56q65.32-.18,130.66-.11a10.44,10.44,0,0,1,3.52.28l35.65.08c.82,0,1.64,0,2.45.05a1.06,1.06,0,0,1,1.06,1c.06.81.05,1.63.05,2.44q0,13.2,0,26.4c-.17.51-.42.9-1,.8a4.58,4.58,0,0,1-.94-.4,9.06,9.06,0,0,0-4-.51c-9.18,0-18.38-.31-27.56,0-26.64,1-53.31-.17-79.94.59s-53.12-.14-79.67.55c-15.55.4-31.1.17-46.65.35C15.15,206.53,13.45,206.93,12.55,205.12Z"/><path id="Tracé_1108" data-name="Tracé 1108" class="cls-6" d="M246.25,417.05q0,17.06-.05,34.11c0,.81,0,1.63,0,2.45a1,1,0,0,1-1,1h-.07c-.72,0-1.45,0-2.18,0L74,454.55c-.63,0-1.27-.05-1.9-.08a5.32,5.32,0,0,1-.44-2.92c0-10.45,0-20.91,0-31.37,0-1.34-.15-2.75.78-3.92,1.21-.84,2.6-.71,4-.71,20,0,40-.43,60,.08,35,.89,70,.11,104.94.47C243,416.11,244.82,415.66,246.25,417.05Z"/><path id="Tracé_1109" data-name="Tracé 1109" class="cls-7" d="M246.26,417.05c-1,0-2-.08-3-.08l-99.3-.05a14.58,14.58,0,0,1-4.32-.35,5.59,5.59,0,0,0-1.63-.09H72.54c-3.55.42-4.6,2.57-4.26,5.87.07.67.14,2-1.4,1.61-.93-1.4-.51-3-.68-4.5-.1-.91-.14-1.87-1.4-1.95s-1.67.84-1.73,1.92c-.12,1.8,0,3.62,0,5.43,0,8.42,0,16.85,0,25.27,0,1.34.18,2.74-.68,3.94a.62.62,0,0,1-.87,0l0,0c-.87-1.31-.65-2.8-.66-4.24,0-9.54,0-19.08,0-28.62,0-3.7-.15-3.82-3.83-3.84s-7.63,0-11.45,0c-1.26,0-2.56.09-3.66-.76a4.43,4.43,0,0,1-.6-2.87q0-12.51,0-25a4.45,4.45,0,0,1,.6-2.87c1.28-1,2.78-.66,4.2-.66,14.3,0,28.6,0,42.9,0q39,0,78.06,0c18.55,0,37.11-.17,55.66.09,8,.12,15.9,1.38,23.9,1,.95-.05,1.56.19,1.55,1.33-.11,9.71.2,19.43-.18,29.15,0,.08-.09.15-.13.23Z"/><path id="Tracé_1110" data-name="Tracé 1110" class="cls-8" d="M217.24,175.09a1.4,1.4,0,0,1-1.15.61c-.73,0-1.46,0-2.19,0l-128-.1a9.94,9.94,0,0,1-3-.19.83.83,0,0,1,.54-.7,8,8,0,0,1,2.84-.35c5.8-.17,11.61-.07,17.41-.06,5.4-.28,5.65,1.15,5.64-6q0-23.73,0-47.45c0-1.53-.21-3.1.59-4.54,1.16-1.2,2.68-1,4.1-.91,12.81,1.28,25.65,2.36,38.48,3.55,13.1,1.21,26.2,2.34,39.3,3.5,7,.61,13.92,1.21,20.87,1.93a18.88,18.88,0,0,0,6.23-.1,2.35,2.35,0,0,1,.46,1.79c0,1.82,0,3.63.06,5.45a14.59,14.59,0,0,0,.37,4.32,6.31,6.31,0,0,1,.1,1.89c0,2.18,0,4.36,0,6.54a14.9,14.9,0,0,1-.34,4.05,12.33,12.33,0,0,0-.14,2.71c-.11,2.53.23,5.09-.51,7.58a2.45,2.45,0,0,0,0,.54,92.64,92.64,0,0,1-1,9.7C217.68,171,217,173,217.24,175.09Z"/><path id="Tracé_1111" data-name="Tracé 1111" class="cls-9" d="M234.21,349.76a26.35,26.35,0,0,1,1,6.66,85.05,85.05,0,0,1,0,12.77A63.27,63.27,0,0,1,232,385.37a3.89,3.89,0,0,1-2.63.47c-20.78-.61-41.57-.1-62.35-.26l-77.59,0a1.11,1.11,0,0,1-.9-.51,7.67,7.67,0,0,1-.53-3.73q0-16.05,0-32.1a8.17,8.17,0,0,1,.52-3.73c.84-1.25,2.1-1.22,3.4-1.19q12.39.36,24.76.92c12.23.53,24.49.62,36.71,1.47,5.16.35,10.35.33,15.51.48,7.35.2,14.7.49,22,.8,12.24.52,24.5.5,36.72,1.47C229.87,349.61,232.06,349.22,234.21,349.76Z"/><path id="Tracé_1112" data-name="Tracé 1112" class="cls-10" d="M189.87,44.62c-3.8,0-7.62.29-11.41-.37a11,11,0,0,0-1.9,0c-2.72,0-5.45,0-8.17-.09-8.07-.35-16.16-.29-24.22-.69-6-.29-12-.22-17.95-.44-.8,0-1.65.18-2.37-.4-1.25-1.9-.36-3.92-.15-5.81A139.14,139.14,0,0,0,123.64,4a7,7,0,0,1,0-2.7L124,.9c2.45,0,4.9,0,7.35.16,4.7.24,9.41.38,14.11.67C149,2,152.48,1.9,156,2.2c4.34.38,8.7.28,13,.62,2.8.22,5.6.34,8.41.4a30.4,30.4,0,0,1,5.95.51c1.66,1.08,3.46-.11,5.16.3.77.18,1.87-.49,2.23.83.27,8.17,1.48,16.3,1.09,24.5-.2,4.18-.48,8.35-1,12.5A4.2,4.2,0,0,1,189.87,44.62Z"/><path id="Tracé_1113" data-name="Tracé 1113" class="cls-11" d="M58.87,43.64a8.34,8.34,0,0,1,.45,1.55c.15,2.17.4,4.34.53,6.5.22,3.62.53,7.24.82,10.85q.77,12.36.3,24.76c-.09,4-.43,8-.51,12A3,3,0,0,1,58,101.77c-9.2,2.32-18.27,5.12-27.48,7.36-1.24.3-2.61,1-3.87-.07a9.86,9.86,0,0,0,1.19-3,60.64,60.64,0,0,0,1.62-11.77c0-2.16.65-4.28.48-6.47a13.58,13.58,0,0,0-.38-3.76,5.2,5.2,0,0,1-.13-1.62,81.14,81.14,0,0,0-3.35-20.23c-.19-.7-.35-1.4-.55-2.1a3.08,3.08,0,0,0-1.07-1.83c.05-1.28,1.16-1.54,2-2A260.58,260.58,0,0,1,56,43.93C56.91,43.61,57.84,43.12,58.87,43.64Z"/><path id="Tracé_1114" data-name="Tracé 1114" class="cls-11" d="M41.42,295.25c.45,1.95.32,4,.62,5.9.49,3.06.1,6.17.57,9.17.54,3.44.32,6.85.43,10.27a6.75,6.75,0,0,1-.31,2.68,10.63,10.63,0,0,0-.22,3.23c-.1,2.25.17,4.5-.45,6.75a13.31,13.31,0,0,0-.1,3.51,4,4,0,0,1-.53,2.08,1.46,1.46,0,0,1-1.13.65c-.93.78-1.9.33-2.83,0q-13.62-4.21-26.78-9.78c-1.16-.5-2.72-.62-3.17-2.22.87,0,1.25-.67,1.5-1.38a56,56,0,0,0,2.34-8.64,55,55,0,0,0,1-7.24,38.16,38.16,0,0,0-.25-9.49c-.35-1.66-.3-3.4-.67-5.1a42.22,42.22,0,0,0-2.22-7.53c.76-.75,1.64-.55,2.55-.38,9.26,1.77,18.33,4.35,27.54,6.31A4.22,4.22,0,0,1,41.42,295.25Z"/><path id="Tracé_1115" data-name="Tracé 1115" class="cls-12" d="M218.91,124.33c-.26,1.29-.26,1.27-1.16,1.24a16.12,16.12,0,0,1-3.8-.15c-2.75-.82-5.63,0-8.36-.92a7.5,7.5,0,0,0-2.17-.1,9,9,0,0,1-3.5-.4,1.22,1.22,0,0,0-.53-.1c-2.83.23-5.58-.63-8.4-.6a7.79,7.79,0,0,1-3-.33,4.1,4.1,0,0,0-1.34-.19c-1.81-.06-3.65.13-5.4-.53-3,.26-5.94-.6-8.94-.59a6.87,6.87,0,0,1-2.95-.37,1.4,1.4,0,0,0-.53-.11c-2.83.2-5.58-.62-8.4-.61a8.45,8.45,0,0,1-3-.31,5.2,5.2,0,0,0-1.61-.21c-1.72-.06-3.46.12-5.12-.52-2.92.25-5.76-.69-8.67-.6a6.83,6.83,0,0,1-2.69-.34,4.34,4.34,0,0,0-1.34-.18c-1.81,0-3.64.13-5.39-.53-2.93.29-5.76-.71-8.67-.59a5.89,5.89,0,0,1-2.43-.28,2.53,2.53,0,0,0-1-.21c-3.46.2-6.85-.93-10.31-.6l-.37-.37c-.61-2.58-1.1-5.14.49-7.58a6.87,6.87,0,0,1,3.47-.45h99.85a10.2,10.2,0,0,1,3,.23c1.46.69,1.58,2.14,1.7,3.43.19,2,.71,3.49,3,3.72a.92.92,0,0,1,.81.93c-.62,0-1.25.1-1.87.13-2,.06-2.17.2-1.92,2.21A44.62,44.62,0,0,1,218.91,124.33Z"/><path id="Tracé_1116" data-name="Tracé 1116" class="cls-13" d="M222.17,116.1c-.8-.62-1.74-.32-2.62-.43s-1.26-.34-1.53-1.24a2.38,2.38,0,0,1-.17-.79c0-1.74-.57-3.38-.73-5.09-.94-.53-2-.26-2.93-.26-17.51,0-35,0-52.52-.05a12.31,12.31,0,0,0-3.53-.23c-15.09,0-30.18-.18-45.26,0-16.54.25-33.08.07-49.61.34a4,4,0,0,0-.92.23,7.56,7.56,0,0,0-1.24.62,15.6,15.6,0,0,1-12,2.1l-15.53-.55-3-.1c0-1.37,1.16-1.5,2.06-1.76,8.47-2.41,17-4.62,25.49-6.93a3.26,3.26,0,0,1,2.4,0l5.18,0a6.77,6.77,0,0,1,2.68.32,6.05,6.05,0,0,0,2.43.22c4.27,0,8.54,0,12.81,0,2.08,0,4.17-.22,6.22.46a7.18,7.18,0,0,0,2.17.07h15a9.86,9.86,0,0,1,3,.33,8.56,8.56,0,0,0,2.42.2c4.91,0,9.82,0,14.73,0a11.16,11.16,0,0,1,3.77.38,8,8,0,0,0,2.43.15c4.36,0,8.73,0,13.09,0,2.08,0,4.17-.22,6.21.46a7.19,7.19,0,0,0,2.17.07h15a10.15,10.15,0,0,1,3,.32,8.28,8.28,0,0,0,2.43.21c4.91,0,9.81,0,14.72,0a11.39,11.39,0,0,1,3.77.37,8,8,0,0,0,2.44.16h15a10.31,10.31,0,0,1,3.22.35,8.29,8.29,0,0,0,2.43.18c5,0,10,0,15,0a10.13,10.13,0,0,1,3.24.32,8.21,8.21,0,0,0,2.42.21c4.91,0,9.82,0,14.73,0a20,20,0,0,1,3.77.35,31.83,31.83,0,0,0,4.88.2c.79,0,1.66-.22,2.32.49-.61.38-1.2.8-1.84,1.14-4,2.15-8,4.23-11.93,6.43a9,9,0,0,1-4.9,1.2C237,116.46,229.59,116.3,222.17,116.1Z"/><path id="Tracé_1117" data-name="Tracé 1117" class="cls-14" d="M31.59,286.52c.16,2.56-.26,2.76,2.72,2.76l81.56.05c.45,0,.91,0,1.36-.06a3.88,3.88,0,0,0,2.13.25H198a5.26,5.26,0,0,0,1.89-.17,5.45,5.45,0,0,1,2.53-.35c2.28-.05,4.57-.06,6.85,0,1,0,1.9-.16,2.85-.18,4.26.26,8.52,0,12.78.17,2.21.06,3.78-.36,3.73-3a1.47,1.47,0,0,1,.65-1.15,4.73,4.73,0,0,1,2.06.53q7.77,3.4,15.53,6.77a1.7,1.7,0,0,1,.42.33,1.4,1.4,0,0,1-1.18.56l-2.45,0H185.29a13.4,13.4,0,0,0-4,.37,10.65,10.65,0,0,1-3,.15l-96,0A13.59,13.59,0,0,0,78,294a9.49,9.49,0,0,1-2.71.12q-16.9,0-33.81,0c-2.59.2-5-.77-7.42-1.32-6.7-1.48-13.34-3.21-20-4.7a24.62,24.62,0,0,0-4.28-.58c-.68,0-1.54.09-1.57-1Z"/><path id="Tracé_1118" data-name="Tracé 1118" class="cls-4" d="M229.27,284.85c0,1.17,0,2.34-.09,3.51s-.3,1.37-1.51,1.41-2.16,0-3.24,0h-10a3.21,3.21,0,0,1-2.54-.6c-1.09-.86-.95-2.1-1-3.26-.33-13.28.89-26.54.56-39.82a4.35,4.35,0,0,1,.5-2.37l.38-.39h12a16.1,16.1,0,0,0,5.13-.39,4.43,4.43,0,0,1,1.36-.07q6.26,0,12.52.06c-.48.61-1.17.39-1.77.39-3.19,0-6.37,0-9.55,0-.64,0-1.28,0-1.91,0a.85.85,0,0,0-.87.83v0c0,.54,0,1.09-.05,1.63q0,18.55,0,37.11C229.18,283.58,229.24,284.22,229.27,284.85Z"/><path id="Tracé_1119" data-name="Tracé 1119" class="cls-15" d="M234.21,349.76a1.55,1.55,0,0,1-1.43.61c-2.53-.12-5.08.33-7.58-.45a6.74,6.74,0,0,0-1.9-.08c-2.64,0-5.28,0-7.91,0a15,15,0,0,1-4.86-.42,6.89,6.89,0,0,0-2.17-.1c-3.09,0-6.18,0-9.27,0a12.1,12.1,0,0,1-4.32-.42,5.72,5.72,0,0,0-1.89-.11h-8.19a12,12,0,0,1-4-.4,6.54,6.54,0,0,0-2.16-.13c-2.55,0-5.1,0-7.64,0a15.28,15.28,0,0,1-5.13-.43,5.79,5.79,0,0,0-1.9-.1h-8.18a13.38,13.38,0,0,1-4.59-.43,5.72,5.72,0,0,0-1.89-.1c-2.82,0-5.64,0-8.46,0a12.78,12.78,0,0,1-4.31-.41,7.19,7.19,0,0,0-2.17-.12c-2.64,0-5.27,0-7.91,0a16.64,16.64,0,0,1-5.4-.44A6.06,6.06,0,0,0,119,346H111.1a14.49,14.49,0,0,1-4.86-.43,5.76,5.76,0,0,0-1.9-.1c-2.72,0-5.45,0-8.18,0a13.1,13.1,0,0,1-4.58-.42,2.91,2.91,0,0,0-2.6.43,1.34,1.34,0,0,1-.53-.67,2.38,2.38,0,0,1,.44-2.46c1,0,2-.11,3-.11l75,0c10.52.78,21.07.28,31.6.38s21.1,0,31.64,0a4.15,4.15,0,0,1,2.88.56C233.35,345.44,234.25,347.51,234.21,349.76Z"/><path id="Tracé_1120" data-name="Tracé 1120" class="cls-6" d="M38.13,454.22l-13.37-.07c-2.82,0-2.94-.1-2.9-2.92,0-2.18.32-4.34.33-6.52,0-8.45,0-16.91,0-25.36,0-.64,0-1.27,0-1.91.05-1.25.06-1.25,1.64-1.59,4-.51,8-.19,12.07-.18a5.14,5.14,0,0,1,1.56.25c1.35.58,1.38,1.8,1.39,3q.06,16.41,0,32.81A3,3,0,0,1,38.13,454.22Z"/><path id="Tracé_1121" data-name="Tracé 1121" class="cls-16" d="M49.06,111.35c1.34,0,2.68-.12,4,0a6.92,6.92,0,0,0,3.6-.77c1.44-.72,2.93-1.33,4.39-2a.94.94,0,0,1,1,0c.95.83.8,2,.83,3,.28,8.91.08,17.82.11,26.73q.06,16.24,0,32.47c0,1.52.23,3.12-.87,4.44a25.11,25.11,0,0,1-4.24-.36,38,38,0,0,0-4.52-.24c-.54-.7-1.33-.45-2-.53-1-.14-1.3-.48-1-1.42s.57-1.72.87-2.57a57,57,0,0,0,2.25-11.4c1-7.07.26-14.14.48-21.2a5.06,5.06,0,0,0-.26-2.15,5.83,5.83,0,0,1-.26-2.15c0-2,.17-4-.52-5.93.27-2.47-.51-4.85-.63-7.3a30.22,30.22,0,0,0-.81-5.34,1.46,1.46,0,0,1,.77-1.92l.1,0c.22-.11.52-.2.52-.7-.76,0-1.53-.08-2.3-.1A1.86,1.86,0,0,1,49.06,111.35Z"/><path id="Tracé_1122" data-name="Tracé 1122" class="cls-17" d="M12.55,205.12c.82.81,1.86.6,2.84.6l23.46-.05c5.28,0,10.56.07,15.83-.07,27.18-.77,54.36-.06,81.54-.62,13.27-.27,26.54-.2,39.8-.33s26.38.17,39.55-.2c12.28-.35,24.54-.18,36.8-.35h1.91c1,0,1.15.69,1.19,1.47,1.09,1.58.41,2.31-1.23,2.54a20.09,20.09,0,0,1-2.45.06c-51.46,0-102.92.2-154.38-.08-27.27-.15-54.53,0-81.8-.2-1.06,0-2.2.24-3.15-.53h0c-.17-.19-.37-.37-.55-.55-.41-.3-.51-.63-.1-1Z"/><path id="Tracé_1123" data-name="Tracé 1123" class="cls-18" d="M110.79,42.36a49.37,49.37,0,0,1-5.71-.15c-2.63-.17-5.27-.16-7.9-.21-3.27-.06-6.54-.1-9.82-.15a3.2,3.2,0,0,1-1.84-.36l8.72-.07c2.84,0,2.85,0,2.86-2.83,0-3.27,0-6.55,0-9.82a8.17,8.17,0,0,0-.36-2.95,3.8,3.8,0,0,1-.16-1.34,64.6,64.6,0,0,0-1-8.33A4.66,4.66,0,0,0,93.87,13a89.91,89.91,0,0,1,12.71-9.34c3.47-2,3.77-1.9,4.86,2.09.93,11.1.75,22.21.69,33.32C112.13,40.29,112.21,41.66,110.79,42.36Z"/><path id="Tracé_1124" data-name="Tracé 1124" class="cls-10" d="M110.79,42.36a4.53,4.53,0,0,0,.47-2.37c0-8.09.17-16.18-.08-24.26-.11-3.61-.42-7.23-.46-10.86.11-1.51-1.38-2.84-.53-4.44A1.2,1.2,0,0,1,111.4,0c3.29.64,6.62.32,9.93.5A4.94,4.94,0,0,1,124,.89l-.15.19c-1.28,3.13-.22,6.3,0,9.4a154.28,154.28,0,0,1-.9,29.38,4.27,4.27,0,0,1-1.26,2.65Z"/><path id="Tracé_1125" data-name="Tracé 1125" class="cls-10" d="M203,45.09a25.18,25.18,0,0,1-5.35-.19,50.39,50.39,0,0,0-5.63-.25c-1.07-1.37-.75-2.94-.58-4.46.46-4,.72-8,.83-11.94A140.41,140.41,0,0,0,190.92,6a5.57,5.57,0,0,1,0-1.63,2.45,2.45,0,0,1,2.4-.1.59.59,0,0,1,.45,0,1.65,1.65,0,0,0,2.11.72c1.3-.6,2.65-.37,4-.38s3.63-.62,2.5,2.29c2.16,1.67-.38,4.34,1.29,6.12h0a12.19,12.19,0,0,1-.08,5.82,2.12,2.12,0,0,0,.63,2.41c0,.69,0,1.38,0,2.07a24.21,24.21,0,0,1,0,7.31l0,2.62c-1,.79-.38,1.75-.35,2.7a16.08,16.08,0,0,1-.17,5,.69.69,0,0,1,0,.45C202.33,42.47,204,44,203,45.09Z"/><path id="Tracé_1126" data-name="Tracé 1126" class="cls-7" d="M36,416.37l-10.36.05a1.92,1.92,0,0,1-1.73-.57q0-13.5.07-27c0-.82,0-1.64,0-2.45a1,1,0,0,1,1-1H25c.72,0,1.45,0,2.18,0l7.08-.08a1.36,1.36,0,0,1,1.92.16l0,0a4.18,4.18,0,0,1,.46,2.36q0,12.87,0,25.74A3.66,3.66,0,0,1,36,416.37Z"/><path id="Tracé_1127" data-name="Tracé 1127" class="cls-19" d="M12.47,207.37h243v-1.78l.5.1c.32,0,.33.4.53.57,0,.71,0,1.42,0,2.14a1.24,1.24,0,0,1-.52,1.15c-3-.64-6.1-.11-9.15-.28a10.08,10.08,0,0,1-3-.19c-1,0-2-.13-3-.13L191,208.88c-31.2,0-62.4.09-93.6-.1-27.38-.17-54.76-.08-82.14-.21-4.09,0-8.18-.13-12.27-.18a7.63,7.63,0,0,0-3,.26c.26-.77.91-.77,1.54-.77H9.39c.72,0,1.44,0,2.15,0A2.91,2.91,0,0,0,12.47,207.37Z"/><path id="Tracé_1128" data-name="Tracé 1128" class="cls-20" d="M40.29,341.73c.82.75,1.82.4,2.76.47a3.59,3.59,0,0,1,.84,2.51c0,8.48.13,17,0,25.45a4.62,4.62,0,0,1-.26,1.32c-1.62,2.3-3.87,2.71-7.07,1.28,0-1.73,0-3.45,0-5.18a6.19,6.19,0,0,1,.24-2.42,2.65,2.65,0,0,0,.05-2.12,2.19,2.19,0,0,1,0-1.84,2.65,2.65,0,0,0,0-2.12,5.53,5.53,0,0,1-.25-2.42c.12-2.53-.28-5.06,0-7.58a2.67,2.67,0,0,0,0-1.09,14,14,0,0,1-.48-5.12,5.68,5.68,0,0,0-.53-2.36C37.37,339.65,38.88,340.48,40.29,341.73Z"/><path id="Tracé_1129" data-name="Tracé 1129" class="cls-21" d="M67.22,424.07c.63-1.2.29-2.48.31-3.73.07-4.36-.43-3.87,3.93-3.89l1.08,0q0,17.82,0,35.64a3.94,3.94,0,0,1-.42,2.36l-4.56-.05a2.48,2.48,0,0,1-1.28-2.5c-.12-8.48-.1-17,0-25.44A2.65,2.65,0,0,1,67.22,424.07Z"/><path id="Tracé_1130" data-name="Tracé 1130" class="cls-6" d="M67.22,424.07l-.06,28.25a3.82,3.82,0,0,0,.39,2.1,24.65,24.65,0,0,1-5.43,0l-.09-.32c0-1.08.1-2.17.1-3.25q0-15.65,0-31.27c0-3.37-.15-3.13,3.37-3.11a4.89,4.89,0,0,1,.54,0,1,1,0,0,1,1,1v.05c0,.9,0,1.81,0,2.72C67.12,421.54,67.17,422.8,67.22,424.07Z"/><path id="Tracé_1131" data-name="Tracé 1131" class="cls-22" d="M62,454.09a.8.8,0,0,1,.09.32,6.38,6.38,0,0,1-2.42.23l-19.24,0a3.41,3.41,0,0,1-2.34-.4q0-17.73,0-35.47c0-.45,0-.91,0-1.36,0-.68-.52-.89-1.08-1-1-1.62-.34-3.42-.55-5.13,0-7.89,0-15.79,0-23.68,0-2.34.86-3.15,2.83-2.94,1.24.14,2,.73,2,2.07-.08,9.88.33,19.77-.21,29.64a5.74,5.74,0,0,0-1.64,4.41c0,9.7,0,19.4,0,29.1,0,3.16.22,3.36,3.44,3.38,5,0,10,0,15,0,1.26,0,2.56-.12,3.62.82C61.73,454.08,61.88,454.08,62,454.09Z"/><path id="Tracé_1132" data-name="Tracé 1132" class="cls-23" d="M58.87,43.64c-5.72,2-11.41,4.09-17,6.46-2.25.95-4.5,1.9-6.73,2.91-3,1.39-6.06,2.84-9.09,4.29a17.73,17.73,0,0,0-1.61,1,9.46,9.46,0,0,1-1.07.12,1,1,0,0,1-1-.7,1.22,1.22,0,0,1,.33-1.48,10.58,10.58,0,0,1,1.86-1.1c4.84-2.27,9.67-4.59,14.55-6.75a191.14,191.14,0,0,1,19.06-7.2c.26-.09.53-.13.79-.2Z"/><path id="Tracé_1133" data-name="Tracé 1133" class="cls-24" d="M40.29,341.73c-1.69-.12-3.14-1.18-4.85-1.23-.41-.41-1-.41-1.49-.58-8.76-2.88-17.39-6.09-25.85-9.76-.41-.18-.83-.37-1.23-.58s-1-.57-.84-1.22.79-.91,1.48-.83a137.37,137.37,0,0,0,12.74,5.3c5.76,2.14,11.61,4,17.43,6a7.25,7.25,0,0,0,2.62.64c.19.18.38.34.55.53C41.66,340.86,41.56,341.16,40.29,341.73Z"/><path id="Tracé_1134" data-name="Tracé 1134" class="cls-25" d="M40.91,416.35c0-3.81,0-7.63-.06-11.44,0-5.54,0-11.08,0-16.62,0-.64,0-1.28,0-1.91a1,1,0,0,0-1-1h-.06c-.36,0-.73,0-1.09,0-1.32,0-1.57.24-1.58,1.62,0,3.9,0,7.81,0,11.71q0,6.4,0,12.81c-1.45-.3-.75-1.45-.75-2.18-.06-7.13,0-14.26-.06-21.4,0-.86.35-1.81-.35-2.59l-1.56-.05c-.12-1,.5-1.77.58-2.7a1.3,1.3,0,0,1,.85-.28c2.39.35,4.86-.38,7.21.54a1.73,1.73,0,0,1,.59,1.64c-.06,1-1,1-1.56,1.39l0,26.91c0,1.18,0,2.36,0,3.54a.6.6,0,0,1-.81.21A.81.81,0,0,1,40.91,416.35Z"/><path id="Tracé_1135" data-name="Tracé 1135" class="cls-26" d="M60.48,102c-3.13,1.14-6.39,1.85-9.59,2.73l-14.59,4c-1.21.33-2.42.67-3.65,1a3.45,3.45,0,0,0-2.12,1.06l-4.53.1c-.47,0-.9-.17-.93-.72a.85.85,0,0,1,.77-.91h0c.26,0,.53-.07.79-.11a51.18,51.18,0,0,0,8.48-1.8c7.7-2.05,15.37-4.26,23.07-6.28a3.85,3.85,0,0,0,2.26-1.73Z"/><path id="Tracé_1136" data-name="Tracé 1136" class="cls-27" d="M167,385.38c2,0,4-.07,6-.07l59.07.06c.58.63,1.34.45,2.05.46,3.73,0,7.45,0,11.18,0,.72,0,1.45,0,2.17.08a.93.93,0,0,1,.86.91c0,.63,0,1.26,0,1.9,0,8.54,0,17.08,0,25.62,0,.84.41,1.85-.57,2.49q0-14.3.05-28.59a7.89,7.89,0,0,0-.1-1.08.8.8,0,0,0-.73-.7c-.72-.06-1.44-.1-2.17-.1H230.93a14.14,14.14,0,0,1-3.78-.35,13,13,0,0,0-3.24-.16H169.44l-2.45,0q-.26-.15-.18-.3C166.87,385.43,166.93,385.38,167,385.38Z"/><path id="Tracé_1137" data-name="Tracé 1137" class="cls-28" d="M8.13,286.57a1.65,1.65,0,0,0,1.49.48c2.94-.2,5.74.6,8.54,1.27,5.53,1.31,11,2.79,16.57,4,1.93.43,3.86.91,5.81,1.28a1.46,1.46,0,0,1,.9.54l0,1.08Q36,294,30.6,292.83c-6.59-1.51-13.18-3.06-19.77-4.57a11,11,0,0,0-1.62-.12c-.52-.15-1-.29-1.55-.48a.54.54,0,0,1-.4-.63C7.39,286.61,7.74,286.54,8.13,286.57Z"/><path id="Tracé_1138" data-name="Tracé 1138" class="cls-29" d="M110.19.43c0,1.5.87,2.9.53,4.44-.06-.06-.15-.12-.18-.2-.22-.57-.27-1.46-.68-1.67-.79-.41-1.45.39-2.14.77a92.2,92.2,0,0,0-9.85,6.75,19.3,19.3,0,0,0-2,1.83,2.32,2.32,0,0,1-2,.65,1.92,1.92,0,0,1,.65-2A96.34,96.34,0,0,1,109.4.64,3.54,3.54,0,0,1,110.19.43Z"/><path id="Tracé_1139" data-name="Tracé 1139" class="cls-30" d="M43,383.13h-5.9c-.63,0-1.27,0-1.71-.54.23-1.55,1.53-1.13,2.47-1.28.7-.12,1.43,0,2.14-.1s1.51-.2,1.42-1.21c-.06-.81-.77-.87-1.4-1-1.37-.21-2.89.27-4.09-.82v-.55c.9-1.6,2.51-1.13,3.9-1.33.6-.09,1.46,0,1.45-.87s-.87-.76-1.46-.84c-1.15-.16-2.39.16-3.36-.78,0-.36,0-.73,0-1.09,1.42,0,2.85-.07,4.26,0A2.76,2.76,0,0,0,43,371.66,15.77,15.77,0,0,1,43,383.13Z"/><path id="Tracé_1140" data-name="Tracé 1140" class="cls-16" d="M36,378.22c1.82,0,3.63,0,5.45,0a1,1,0,0,1,1.06.93v.07a12.65,12.65,0,0,1,0,1.63c-.06.77-.38,1.08-1.24,1.11-1.36.05-2.72,0-4.09,0-.63,0-1.28,0-1.73.55h-.53C35.42,381.17,35.23,379.59,36,378.22Z"/><path id="Tracé_1141" data-name="Tracé 1141" class="cls-16" d="M36.49,373.85c1.54,0,3.07,0,4.6,0,1.13,0,1.39.36,1.4,1.53a4.41,4.41,0,0,1-.05.81.94.94,0,0,1-.9.85q-1.35.07-2.7.06a5.14,5.14,0,0,0-2.88.55C36,376.38,35.77,375.05,36.49,373.85Z"/><path id="Tracé_1142" data-name="Tracé 1142" class="cls-10" d="M203.63,13a3,3,0,0,1-1-.28,1.06,1.06,0,0,1-.48-1.43,1,1,0,0,1,.1-.17c.14-.23.41-.38.53-.6a1.76,1.76,0,0,0-.4-2.39c-1-.79-1.18-1.48-.29-2.45.34-.37,0-.74-.4-.76-1.34-.06-2.7-.07-4,0a2.34,2.34,0,0,0-1,.37,7.48,7.48,0,0,1-.89.57,1.78,1.78,0,0,1-1.56-.1c-.54-.34-.42-.94-.46-1.47,2.6,0,5.2,0,7.8.11,1.21,0,1.3.19,1.5,1.43A34.14,34.14,0,0,1,203.63,13Z"/><path id="Tracé_1143" data-name="Tracé 1143" class="cls-10" d="M204.15,21.22c-1.64-.62-2.11-1.35-1.29-2.46a3.89,3.89,0,0,0,.72-2.51c0-1.09,0-2.17,0-3.26a2,2,0,0,1,.46,1.5Z"/><path id="Tracé_1144" data-name="Tracé 1144" class="cls-31" d="M243.91,209.08l11-.11a1.12,1.12,0,0,1,1.11.57l-12,0A1.12,1.12,0,0,1,243.91,209.08Z"/><path id="Tracé_1145" data-name="Tracé 1145" class="cls-10" d="M193.3,4.26l-2.4.12h-.31l-3.74-.07a3.81,3.81,0,0,0-2,.46c-.91.52-1,.43-1.43-1l8.39.1A2.28,2.28,0,0,1,193.3,4.26Z"/><path id="Tracé_1146" data-name="Tracé 1146" class="cls-10" d="M203.61,41c0-1.26,0-2.52,0-3.77a3.87,3.87,0,0,0-.52-2c-.7-1.21-.59-1.32,1.07-1.91q0,3.1-.08,6.21A2.17,2.17,0,0,1,203.61,41Z"/><path id="Tracé_1147" data-name="Tracé 1147" class="cls-10" d="M204.16,30.6V23.3a.64.64,0,0,1,.14.22A17.77,17.77,0,0,1,204.16,30.6Z"/><path id="Tracé_1148" data-name="Tracé 1148" class="cls-10" d="M203,45.09a6.83,6.83,0,0,0-.42-2.53c-.24-.78.3-1.08,1-1.15v3.68Z"/><path id="Tracé_1149" data-name="Tracé 1149" class="cls-17" d="M256.51,206.25l-.53-.57.48-.58C256.48,205.48,256.49,205.87,256.51,206.25Z"/><path id="Tracé_1150" data-name="Tracé 1150" class="cls-19" d="M11.93,206.82l.54.55Z"/><path id="Tracé_1151" data-name="Tracé 1151" class="cls-32" d="M121.68,42.52c.56-3.83.83-7.7,1.22-11.54.53-5.16.28-10.29.38-15.43a16.14,16.14,0,0,0-.38-4.85,8.69,8.69,0,0,1-.12-2.16,15.59,15.59,0,0,0-.42-4.3,6,6,0,0,1-.12-1.88c0-1,.09-1.07,1.57-1.27.17.32.46.64.47,1,.06,2.26.75,4.45.7,6.73a18.62,18.62,0,0,0,.42,5.67,7.57,7.57,0,0,1,.07,1.9c0,2.63,0,5.26,0,7.89a12,12,0,0,1-.38,4,2.82,2.82,0,0,0-.09,1.08c.22,3.18-.55,6.3-.61,9.47,0,1.27-.69,2.45-.54,3.75A3.23,3.23,0,0,1,121.68,42.52Z"/><path id="Tracé_1152" data-name="Tracé 1152" class="cls-33" d="M190.58,4.37h.31A3.67,3.67,0,0,1,192,6.8c-.08,2.37.63,4.65.64,7s-.18,4.54.47,6.75c-.11,3.88.43,7.78-.36,11.64a2,2,0,0,0-.05.54c.22,4-.66,7.93-.67,11.91l-2.18,0c.46-3.87.44-7.78,1-11.63a13.56,13.56,0,0,0,.07-1.91c0-3.09,0-6.19,0-9.28a18.51,18.51,0,0,0-.4-5.14,8.78,8.78,0,0,1-.1-2.17,24.94,24.94,0,0,0-.42-4.88,19.32,19.32,0,0,1-.16-3.8A2.16,2.16,0,0,1,190.58,4.37Z"/><path id="Tracé_1153" data-name="Tracé 1153" class="cls-9" d="M43,383.13V371.66c0-6.54.07-13.09.08-19.64,0-3.27,0-6.54-.06-9.82l.57.1c4.7,1.24,9.5.53,14.24.73,1.69.07,3.47-.31,4.92,1a2.79,2.79,0,0,1,.52.9,13.7,13.7,0,0,1,.28,3.78q0,15.88,0,31.77a9,9,0,0,1-.53,4.26,2.67,2.67,0,0,1-2.43.87H45.19c-.8,0-1.66.13-2.07-.84C43.08,384.2,43.05,383.66,43,383.13Z"/><path id="Tracé_1154" data-name="Tracé 1154" class="cls-34" d="M88.89,342.34c0,.86,0,1.72,0,2.58-3.07,1.68-6.4,1-9.56.72-4.25-.31-8.48-.35-12.73-.41-1.34,0-2.74.13-3.88-.86l-.12,0c-.29-.7-.52-1.4.12-2.06,2.64,0,5.28-.07,7.91-.08q7.78,0,15.56,0C87.08,342.23,88,342.3,88.89,342.34Z"/><path id="Tracé_1155" data-name="Tracé 1155" class="cls-35" d="M62.7,342.29l-.12,2.07a4.11,4.11,0,0,0-2.59-.53c-3.42,0-6.83-.07-10.24,0-1.92,0-3.7-.63-5.58-.71-.4,0-.45-.5-.54-.84,2.63,0,5.26-.11,7.9-.1C55.25,342.2,59,342.26,62.7,342.29Z"/><path id="Tracé_1156" data-name="Tracé 1156" class="cls-4" d="M209.52,289.75h-7c-1.2-1.28-.92-2.88-.92-4.4q0-18.24,0-36.46a10.09,10.09,0,0,0-.23-2.85,36.64,36.64,0,0,0-.21,5.34c0,11.34,0,22.67,0,34,0,1.5.35,3.13-1,4.34H168l-47.9-.05c-1,0-2,.27-2.89-.42l7.91,0h71.2c3.62,0,3.42.22,3.42-3.39V243c3.87-.31,7.75-.08,11.63-.11.32,0,.64.27,1,.42l-.15.15c-1.67,1.11-1.76,2.8-1.76,4.57q0,18.65,0,37.28C210.43,286.86,210.71,288.47,209.52,289.75Z"/><path id="Tracé_1157" data-name="Tracé 1157" class="cls-36" d="M39.77,225.57c0-2,0-4,0-6,0-.84.33-1.11,1.18-1.14a8.89,8.89,0,0,1,1.63.06.94.94,0,0,1,.86.92q0,6.14,0,12.27a.86.86,0,0,1-.4.64,4.06,4.06,0,0,1-2.91,0c-.35-.15-.37-.6-.37-1,0-1.91,0-3.82,0-5.73Z"/><path id="Tracé_1158" data-name="Tracé 1158" class="cls-37" d="M28.25,225.44c0-1.81,0-3.61,0-5.42,0-1.49.23-1.65,1.79-1.64a7.32,7.32,0,0,1,.81,0,1,1,0,0,1,1.08,1h0c0,4.06,0,8.12,0,12.18a.87.87,0,0,1-.85.88,9.74,9.74,0,0,1-1.08,0c-1.6,0-1.75-.14-1.78-1.65,0-1.8,0-3.61,0-5.42Z"/><path id="Tracé_1159" data-name="Tracé 1159" class="cls-8" d="M62.17,175.18V113.31c0-1.18,0-2.36,0-3.54a1.51,1.51,0,0,0-.51-1.2c-.15-.1-.2-.19-.14-.28s.11-.12.16-.12a1.19,1.19,0,0,1,.48-.16c.27,0,.64-.08.7.21.67,3,3.13,3.08,5.42,3.21,2.78.17,5.53.6,8.32.72,1.36.06,2.72.16,3.48,1.59a12.15,12.15,0,0,1,.43,4.57q0,25.83,0,51.66c0,2.2.17,4.15,2.43,5.22v.25a11.6,11.6,0,0,1-3.22.17c-3,0-6,.22-8.91-.05S65,175.32,62.17,175.18Z"/><path id="Tracé_1160" data-name="Tracé 1160" class="cls-38" d="M29.32,184.53a5,5,0,0,1,.75.33A33.79,33.79,0,0,1,36.62,191a1.66,1.66,0,0,1,.11,2.24,35.35,35.35,0,0,1-6.16,6.48,2.92,2.92,0,0,1-.7.41,1.07,1.07,0,0,1-1.26-.12c-.36-.35-.31-.93.16-1.45s.9-.9,1.34-1.35c1.34-1.36,2.69-2.7,4-4.07.6-.63.63-1,.12-1.67A15.65,15.65,0,0,0,31,188.2a10.82,10.82,0,0,1-2.38-2.2.79.79,0,0,1,.09-1A3,3,0,0,1,29.32,184.53Z"/><path id="Tracé_1161" data-name="Tracé 1161" class="cls-39" d="M41.18,199a2.22,2.22,0,0,1-.57-.39,1,1,0,0,1-.09-1.26,9.15,9.15,0,0,1,1.92-1.91c1.17-1,2.3-2.06,3.43-3.11a.91.91,0,0,0,.19-1.27l-.16-.16c-1.16-1.15-2.35-2.27-3.53-3.4a4.62,4.62,0,0,1-.78-.75,1,1,0,0,1,.18-1.25.83.83,0,0,1,1.14-.19.18.18,0,0,1,.07.05c1.7,1.76,3.92,3,5.3,5.05.77,1.16.78,1.61,0,2.65a2.62,2.62,0,0,1-.55.6,58,58,0,0,0-5.45,4.94A1.18,1.18,0,0,1,41.18,199Z"/><path id="Tracé_1162" data-name="Tracé 1162" class="cls-40" d="M63.47,187.64c2.65,0,3.58.75,3.8,3.17a4.09,4.09,0,0,1-3.37,4.54,3.8,3.8,0,0,1-4.41-3.08,5.51,5.51,0,0,1-.06-.57C59.33,189.21,60.85,187.67,63.47,187.64Z"/><path id="Tracé_1163" data-name="Tracé 1163" class="cls-41" d="M56.7,186.41a3.39,3.39,0,0,1-.83,2.23,1.69,1.69,0,0,1-1.41.67.93.93,0,0,1-1-.87.81.81,0,0,1,.07-.4,2,2,0,0,1,.44-.66,1.49,1.49,0,0,0,.22-2,8.51,8.51,0,0,1-.6-1.21.94.94,0,0,1,.47-1.14.83.83,0,0,1,1,.07A4.26,4.26,0,0,1,56.7,186.41Z"/><path id="Tracé_1164" data-name="Tracé 1164" class="cls-3" d="M92.28,435.23A6.57,6.57,0,0,1,86,442.08h-.31A7,7,0,0,1,79,435.48c.09-3.84,2.86-7,6.53-7a6.67,6.67,0,0,1,6.73,6.59Z"/><path id="Tracé_1165" data-name="Tracé 1165" class="cls-3" d="M40.91,416.35l1,0c1.36,0,2.72.1,4.08.1q6.14,0,12.26,0c3.76,0,3.45-.28,3.45,3.59q0,4.77,0,9.54,0,10.89,0,21.78c0,.91-.07,1.81-.1,2.72H40.83c-.45,0-.91,0-1.36-.07a.89.89,0,0,1-.82-.92c0-.54,0-1.09,0-1.63l0-32.2c0-.46,0-.92,0-1.37.07-1.22.13-1.28,1.45-1.46C40.37,416.39,40.64,416.37,40.91,416.35Z"/><path id="Tracé_1166" data-name="Tracé 1166" class="cls-19" d="M52.36,394.82a5.08,5.08,0,0,1,1,.52c1.8,1.8,3.59,3.6,5.36,5.44.74.77.7,1.16-.07,1.78-1.69,1.37-3.37,2.75-5.07,4.11a1.06,1.06,0,0,1-.73.25c-.41-.08-.48-.48-.48-.85,0-1.09,0-2.18,0-3.27Z"/><path id="Tracé_1167" data-name="Tracé 1167" class="cls-42" d="M167,385.38a3.53,3.53,0,0,1,0,.46l-44.48,0q-16.8,0-33.58,0a.31.31,0,0,1-.12-.36q.08-.18.15-.18l63.85,0C157.53,385.31,162.26,385.36,167,385.38Z"/><path id="Tracé_1168" data-name="Tracé 1168" class="cls-43" d="M61.69,406c-.23-3.4-.08-6.35-.13-9.24.68-.34,1,.06,1.29.37.77.76,1.54,1.54,2.3,2.33,2.2,2.28,2.25,1.72-.25,4.05C64.05,404.34,63.05,405,61.69,406Z"/><path id="Tracé_1169" data-name="Tracé 1169" class="cls-44" d="M89,385.29a3.25,3.25,0,0,0,0,.54l-42.88,0H42l1.15-1.14a3.75,3.75,0,0,0,2.31.55q7.43,0,14.85,0a4.22,4.22,0,0,0,2.34-.47c2-.63,4.12-.32,6.18-.33,5.5,0,11,0,16.5,0a5.82,5.82,0,0,1,3.65.71Z"/><path id="Tracé_1170" data-name="Tracé 1170" class="cls-45" d="M103.62,175.11H85.69a5.58,5.58,0,0,1-.38-2.94q0-26.7,0-53.4c0-1.53-.2-3.1.53-4.55a2.81,2.81,0,0,1,2.71-.95c4.78.47,9.6.58,14.33,1.47a1.71,1.71,0,0,1,.7.78,10,10,0,0,1,.4,3.77q0,26.58,0,53.17A5.07,5.07,0,0,1,103.62,175.11Z"/><path id="Tracé_1171" data-name="Tracé 1171" class="cls-6" d="M103.62,175.11a6.39,6.39,0,0,1-.5-3.45V125.2q0-5,0-10c2.46-.39,4.93-.86,7.06,1l.07,0q0,19,0,38.08v17.14c0,.45,0,.91,0,1.36,0,2.29-.06,2.34-2.23,2.36C106.52,175.16,105.07,175.12,103.62,175.11Z"/><path id="Tracé_1172" data-name="Tracé 1172" class="cls-6" d="M86.19,114q0,28.81,0,57.63a6.48,6.48,0,0,1-.5,3.45l-2.77.09c-3.46-.17-3.3.37-3.3-3.52q0-27.34,0-54.68c0-1.18,0-2.36-.05-3.54l.33-.31a7.87,7.87,0,0,1,5.69.21A1.84,1.84,0,0,1,86.19,114Z"/><path id="Tracé_1173" data-name="Tracé 1173" class="cls-46" d="M89,385.16c-.91,0-1.81.13-2.72.13q-10.51,0-21,0c-.89,0-1.84.24-2.6-.48l.05-20.34,0-20.07H73.52a13.42,13.42,0,0,1,4.55.42,6.75,6.75,0,0,0,2.15.11h8.65l.12.54c0,2.09-.06,4.17-.06,6.26Q88.93,368.43,89,385.16Z"/><path id="Tracé_1174" data-name="Tracé 1174" class="cls-47" d="M150.07,22.73c0,4.24-3.19,9.75-8.77,10.58a11.48,11.48,0,0,1-5.78-.56,9.44,9.44,0,0,1-4.88-4.18,10.59,10.59,0,0,1,1.22-13A12.4,12.4,0,0,1,138.71,12c1.49-.3,2.86.38,4.22.76a13.34,13.34,0,0,1,4,2.33,7.26,7.26,0,0,1,1.76,2.71A10.34,10.34,0,0,1,150.07,22.73Z"/><path id="Tracé_1175" data-name="Tracé 1175" class="cls-48" d="M161.63,108l26.64,0,25.83,0c.72,0,1.45,0,2.17,0a.93.93,0,0,1,.85.56H110.22a.5.5,0,0,1,.11-.69.39.39,0,0,1,.26-.09c16.48-.08,33,0,49.44,0A2.93,2.93,0,0,1,161.63,108Z"/><path id="Tracé_1176" data-name="Tracé 1176" class="cls-49" d="M110.21,108a3.37,3.37,0,0,0,0,.55q0,3.8,0,7.59a12.26,12.26,0,0,0-4.21-.5,5.33,5.33,0,0,1-2.86-.5v0c-1.12-2.5-1.59-5,.51-7.24A23.1,23.1,0,0,1,110.21,108Z"/><path id="Tracé_1177" data-name="Tracé 1177" class="cls-50" d="M110.21,108h-6.56a5.65,5.65,0,0,1-3.33.85c-4.75,0-9.5.1-14.24-.07-.36,0-.71,0-1.07,0-3.84,0-3.84,0-4.82,3.66a2.54,2.54,0,0,1-.55.92l-.06,0a3.8,3.8,0,0,0-1.26-.46c-3,.2-5.9-.7-8.88-.62-2,.06-3.89-.74-5.89-.64-.52,0-.76-.44-.8-.92s0-1.09-.06-1.63a1.44,1.44,0,0,0-.54-1.18,1.43,1.43,0,0,1,1.2-.53H65.8l92.66.09c1.06,0,2.19-.31,3.16.42l-19.85,0Z"/><path id="Tracé_1178" data-name="Tracé 1178" class="cls-50" d="M61.67,108.17c0,.13,0,.26,0,.4l-.58,0A.61.61,0,0,1,61.67,108.17Z"/><path id="Tracé_1179" data-name="Tracé 1179" class="cls-51" d="M209.52,289.75q0-7.06.07-14.12,0-14.38,0-28.78c0-.46,0-.91,0-1.36,0-2.27.06-2.29,2.59-2,0,7.35.25,14.7-.07,22-.35,7.88-.1,15.76-.25,23.65C211.25,290,210.36,289.75,209.52,289.75Z"/><path id="Tracé_1180" data-name="Tracé 1180" class="cls-52" d="M200.14,289.73c0-2,.09-4,.09-6q0-18.51,0-37c0-.81,0-1.63.06-2.44,0-.65.42-.94,1.09-.93s1,.29,1.07.94c.05.82.05,1.63.05,2.45q0,19.88,0,39.75c0,1.09,0,2.18.05,3.27Z"/><path id="Tracé_1181" data-name="Tracé 1181" class="cls-53" d="M35.87,385.33c.67.38.63,1,.63,1.66v6.51c0,5.24,0,10.48,0,15.72,0,.79-.23,1.65.51,2.28l0,4.87H36q0-13.89,0-27.78C36,387.51,35.89,386.42,35.87,385.33Z"/><path id="Tracé_1182" data-name="Tracé 1182" class="cls-54" d="M65.33,191.12a2.13,2.13,0,0,1-2.08,2.06,1.56,1.56,0,0,1-1.63-1.48,1.92,1.92,0,0,1,1.74-2A1.82,1.82,0,0,1,65.33,191.12Z"/><path id="Tracé_1183" data-name="Tracé 1183" class="cls-55" d="M85.65,108h18a4.88,4.88,0,0,0-.55,2.57c0,1.51,0,3,0,4.53-2.33-.08-4.68.21-7-.49a7.75,7.75,0,0,0-2.15-.06,20.32,20.32,0,0,1-3.21-.34,33.37,33.37,0,0,0-4.58-.21l-.54,0A16.58,16.58,0,0,1,85.65,108Z"/><path id="Tracé_1184" data-name="Tracé 1184" class="cls-49" d="M85.65,108a7.55,7.55,0,0,1,0,6,5.29,5.29,0,0,0-2.57-.51c-1.15,0-2.29,0-3.44,0,0-1.37,0-2.73,0-4.09,0-1,.32-1.27,1.36-1.29C82.55,108,84.1,108,85.65,108Z"/></g></g></svg>