<svg xmlns="http://www.w3.org/2000/svg" viewBox="0 0 107.19 150.78"><defs><style>.cls-1{fill:#fbdb9e;}.cls-2{fill:#291c6a;}</style></defs><g id="Calque_2" data-name="Calque 2"><g id="Calque_1-2" data-name="Calque 1"><g id="Groupe_48" data-name="Groupe 48"><path id="Tracé_5598" data-name="Tracé 5598" class="cls-1" d="M97.9,69l1.62.08a7.9,7.9,0,0,1,7.32,6,8.76,8.76,0,0,1,.34,2.6c0,.27,0,.54,0,.81q0,31.46,0,62.9a12.72,12.72,0,0,1-.37,3.42,7.84,7.84,0,0,1-7.38,5.9H8.75A8.81,8.81,0,0,1,5,150.17c-3-1.37-4.83-3.61-5-7,0-.48,0-1,0-1.42V78.22c0-.47,0-1,0-1.42a8,8,0,0,1,7.45-7.68c.54,0,1.08-.07,1.62-.1a2.68,2.68,0,0,1,2.22-.76c4.39,0,8.78-.13,13.16.09,3.45-.22,6.89-.11,10.34-.1,16,0,32-.1,48,.06,4.22-.14,8.44,0,12.66,0A3,3,0,0,1,97.9,69Z"/><path id="Tracé_5599" data-name="Tracé 5599" class="cls-2" d="M97.9,69l-15.1,0c-1.29-.66-1.15-1.88-1.15-3,0-7.24,0-14.48,0-21.71-.06-10.57-4.78-18.69-13.69-24a28.14,28.14,0,0,0-42.35,20,51.88,51.88,0,0,0-.3,7.48c0,6.16,0,12.32,0,18.47,0,1,.1,2.07-.92,2.75-5.09.1-10.18.11-15.28,0,0-8.65-.22-17.31,0-26A44.26,44.26,0,0,1,34.05,4.52,43.49,43.49,0,0,1,57.28.18,44.45,44.45,0,0,1,95.42,29.59,43.52,43.52,0,0,1,98,44.5c0,7.43,0,14.87,0,22.31C98,67.55,97.92,68.29,97.9,69Z"/><path id="Tracé_5600" data-name="Tracé 5600" class="cls-2" d="M48.07,120.63c0-3,0-5.95,0-8.92a2.07,2.07,0,0,0-1-2,11.12,11.12,0,0,1-4.88-7.41,11.56,11.56,0,0,1,21.75-7.23,11.4,11.4,0,0,1-3.48,14.31,3.2,3.2,0,0,0-1.51,3c.07,5.54,0,11.08,0,16.62,0,.54,0,1.08,0,1.62a.6.6,0,0,1-.6.61h-.06c-.94,0-1.89,0-2.84,0-2.09,0-4.19,0-6.28,0-.89,0-1-.15-1.05-1.08,0-2.37,0-4.73,0-7.1v-2.43Z"/></g></g></g></svg>