<svg xmlns="http://www.w3.org/2000/svg" viewBox="0 0 55.96 31.94"><defs><style>.cls-1{fill:#fff;}</style></defs><g id="Calque_2" data-name="Calque 2"><g id="Calque_1-2" data-name="Calque 1"><path id="Tracé_1" data-name="Tracé 1" class="cls-1" d="M28,31.93a32.48,32.48,0,0,1-9.64-1.47A32.48,32.48,0,0,1,.74,17.11L0,16l.74-1.15a32.44,32.44,0,0,1,54.48,0L56,16l-.74,1.14A32.25,32.25,0,0,1,40.71,29.33,32.42,32.42,0,0,1,28,31.93ZM5.07,16a28.13,28.13,0,0,0,34,9.47A28.1,28.1,0,0,0,50.9,16a28.16,28.16,0,0,0-34-9.48h0A28.09,28.09,0,0,0,5.07,16Z"/><path id="Tracé_2" data-name="Tracé 2" class="cls-1" d="M28,31.94A16,16,0,1,1,44,16,16,16,0,0,1,28,31.94ZM28,4.22A11.75,11.75,0,1,0,39.73,16,11.75,11.75,0,0,0,28,4.22Z"/></g></g></svg>